<?xml version="1.0" encoding="UTF-8"?>
<svg xmlns="http://www.w3.org/2000/svg" xmlns:xlink="http://www.w3.org/1999/xlink" width="84" height="144" viewBox="0 0 84 144">
<rect x="-8.4" y="-14.4" width="100.8" height="172.8" fill="rgb(100%, 100%, 100%)" fill-opacity="1"/>
<path fill="none" stroke-width="0.1" stroke-linecap="butt" stroke-linejoin="miter" stroke="rgb(0%, 0%, 0%)" stroke-opacity="1" stroke-miterlimit="10" d="M 0.999992 0.499995 L 0.999992 2.999995 " transform="matrix(20, 0, 0, 20, 2.414214, -7.99989)"/>
<path fill="none" stroke-width="0.1" stroke-linecap="butt" stroke-linejoin="miter" stroke="rgb(0%, 0%, 0%)" stroke-opacity="1" stroke-miterlimit="10" d="M 1.006633 0.50019 L 2.997844 0.499995 " transform="matrix(20, 0, 0, 20, 2.414214, -7.99989)"/>
<path fill="none" stroke-width="0.1" stroke-linecap="butt" stroke-linejoin="miter" stroke="rgb(0%, 0%, 0%)" stroke-opacity="1" stroke-miterlimit="10" d="M 2.997844 0.50019 L 2.999992 2.999995 " transform="matrix(20, 0, 0, 20, 2.414214, -7.99989)"/>
<path fill="none" stroke-width="0.1" stroke-linecap="butt" stroke-linejoin="miter" stroke="rgb(0%, 0%, 0%)" stroke-opacity="1" stroke-miterlimit="10" d="M -0.00000755312 2.999995 L 0.999992 2.999995 " transform="matrix(20, 0, 0, 20, 2.414214, -7.99989)"/>
<path fill="none" stroke-width="0.1" stroke-linecap="butt" stroke-linejoin="miter" stroke="rgb(0%, 0%, 0%)" stroke-opacity="1" stroke-miterlimit="10" d="M 2.999992 2.999995 L 3.999992 2.999995 " transform="matrix(20, 0, 0, 20, 2.414214, -7.99989)"/>
<path fill="none" stroke-width="0.1" stroke-linecap="butt" stroke-linejoin="miter" stroke="rgb(0%, 0%, 0%)" stroke-opacity="1" stroke-miterlimit="10" d="M -0.00000755312 3.999995 L 0.999992 3.999995 " transform="matrix(20, 0, 0, 20, 2.414214, -7.99989)"/>
<path fill="none" stroke-width="0.1" stroke-linecap="butt" stroke-linejoin="miter" stroke="rgb(0%, 0%, 0%)" stroke-opacity="1" stroke-miterlimit="10" d="M 2.997844 3.999995 L 3.999992 3.999995 " transform="matrix(20, 0, 0, 20, 2.414214, -7.99989)"/>
<path fill="none" stroke-width="0.1" stroke-linecap="butt" stroke-linejoin="miter" stroke="rgb(0%, 0%, 0%)" stroke-opacity="1" stroke-miterlimit="10" d="M -0.00000755312 2.999995 L -0.00000755312 3.999995 " transform="matrix(20, 0, 0, 20, 2.414214, -7.99989)"/>
<path fill="none" stroke-width="0.1" stroke-linecap="butt" stroke-linejoin="miter" stroke="rgb(0%, 0%, 0%)" stroke-opacity="1" stroke-miterlimit="10" d="M 3.999992 2.999995 L 3.999992 3.999995 " transform="matrix(20, 0, 0, 20, 2.414214, -7.99989)"/>
<path fill="none" stroke-width="0.1" stroke-linecap="butt" stroke-linejoin="miter" stroke="rgb(0%, 0%, 0%)" stroke-opacity="1" stroke-miterlimit="10" d="M 0.499992 5.999995 L 0.499992 6.499995 " transform="matrix(20, 0, 0, 20, 2.414214, -7.99989)"/>
<path fill="none" stroke-width="0.1" stroke-linecap="butt" stroke-linejoin="miter" stroke="rgb(0%, 0%, 0%)" stroke-opacity="1" stroke-miterlimit="10" d="M 0.499992 6.499995 L 1.499992 7.499995 " transform="matrix(20, 0, 0, 20, 2.414214, -7.99989)"/>
<path fill="none" stroke-width="0.1" stroke-linecap="butt" stroke-linejoin="miter" stroke="rgb(0%, 0%, 0%)" stroke-opacity="1" stroke-miterlimit="10" d="M 3.499992 5.999995 L 3.499992 6.499995 " transform="matrix(20, 0, 0, 20, 2.414214, -7.99989)"/>
<path fill="none" stroke-width="0.1" stroke-linecap="butt" stroke-linejoin="miter" stroke="rgb(0%, 0%, 0%)" stroke-opacity="1" stroke-miterlimit="10" d="M 3.499992 6.499995 L 2.499992 7.499995 " transform="matrix(20, 0, 0, 20, 2.414214, -7.99989)"/>
<path fill="none" stroke-width="0.1" stroke-linecap="butt" stroke-linejoin="miter" stroke="rgb(0%, 0%, 0%)" stroke-opacity="1" stroke-miterlimit="10" d="M 1.499992 7.499995 L 2.499992 7.499995 " transform="matrix(20, 0, 0, 20, 2.414214, -7.99989)"/>
<path fill="none" stroke-width="0.1" stroke-linecap="butt" stroke-linejoin="miter" stroke="rgb(0%, 0%, 0%)" stroke-opacity="1" stroke-miterlimit="10" d="M 0.499992 5.999995 L 1.499992 6.999995 " transform="matrix(20, 0, 0, 20, 2.414214, -7.99989)"/>
<path fill="none" stroke-width="0.1" stroke-linecap="butt" stroke-linejoin="miter" stroke="rgb(0%, 0%, 0%)" stroke-opacity="1" stroke-miterlimit="10" d="M 3.499992 5.999995 L 2.499992 6.999995 " transform="matrix(20, 0, 0, 20, 2.414214, -7.99989)"/>
<path fill="none" stroke-width="0.1" stroke-linecap="butt" stroke-linejoin="miter" stroke="rgb(0%, 0%, 0%)" stroke-opacity="1" stroke-miterlimit="10" d="M 1.499992 6.999995 L 2.499992 6.999995 " transform="matrix(20, 0, 0, 20, 2.414214, -7.99989)"/>
<path fill="none" stroke-width="0.1" stroke-linecap="butt" stroke-linejoin="miter" stroke="rgb(0%, 0%, 0%)" stroke-opacity="1" stroke-miterlimit="10" d="M 0.999992 3.999995 L 3.009758 3.999995 " transform="matrix(20, 0, 0, 20, 2.414214, -7.99989)"/>
<path fill="none" stroke-width="0.1" stroke-linecap="butt" stroke-linejoin="miter" stroke="rgb(0%, 0%, 0%)" stroke-opacity="1" stroke-miterlimit="10" d="M -0.00000755312 5.499995 L -0.00000755312 4.999995 " transform="matrix(20, 0, 0, 20, 2.414214, -7.99989)"/>
<path fill="none" stroke-width="0.1" stroke-linecap="butt" stroke-linejoin="miter" stroke="rgb(0%, 0%, 0%)" stroke-opacity="1" stroke-miterlimit="10" d="M 1.499992 5.499995 L 1.499992 4.999995 " transform="matrix(20, 0, 0, 20, 2.414214, -7.99989)"/>
<path fill="none" stroke-width="0.1" stroke-linecap="butt" stroke-linejoin="miter" stroke="rgb(0%, 0%, 0%)" stroke-opacity="1" stroke-miterlimit="10" d="M 0.499992 4.499995 L -0.00000755312 4.999995 " transform="matrix(20, 0, 0, 20, 2.414214, -7.99989)"/>
<path fill="none" stroke-width="0.1" stroke-linecap="butt" stroke-linejoin="miter" stroke="rgb(0%, 0%, 0%)" stroke-opacity="1" stroke-miterlimit="10" d="M 0.499992 4.499995 L 0.999992 4.999995 " transform="matrix(20, 0, 0, 20, 2.414214, -7.99989)"/>
<path fill="none" stroke-width="0.1" stroke-linecap="butt" stroke-linejoin="miter" stroke="rgb(0%, 0%, 0%)" stroke-opacity="1" stroke-miterlimit="10" d="M -0.00000755312 4.999995 L 0.999992 4.999995 " transform="matrix(20, 0, 0, 20, 2.414214, -7.99989)"/>
<path fill="none" stroke-width="0.1" stroke-linecap="butt" stroke-linejoin="miter" stroke="rgb(0%, 0%, 0%)" stroke-opacity="1" stroke-miterlimit="10" d="M 1.499992 4.999995 L 1.499992 4.499995 " transform="matrix(20, 0, 0, 20, 2.414214, -7.99989)"/>
<path fill="none" stroke-width="0.1" stroke-linecap="butt" stroke-linejoin="miter" stroke="rgb(0%, 0%, 0%)" stroke-opacity="1" stroke-miterlimit="10" d="M 1.499992 4.499995 L 2.499992 4.499995 " transform="matrix(20, 0, 0, 20, 2.414214, -7.99989)"/>
<path fill="none" stroke-width="0.1" stroke-linecap="butt" stroke-linejoin="miter" stroke="rgb(0%, 0%, 0%)" stroke-opacity="1" stroke-miterlimit="10" d="M 1.499992 5.499995 L 2.499992 5.499995 " transform="matrix(20, 0, 0, 20, 2.414214, -7.99989)"/>
<path fill="none" stroke-width="0.1" stroke-linecap="butt" stroke-linejoin="miter" stroke="rgb(0%, 0%, 0%)" stroke-opacity="1" stroke-miterlimit="10" d="M 1.999992 4.999995 L 2.499992 4.999995 " transform="matrix(20, 0, 0, 20, 2.414214, -7.99989)"/>
<path fill="none" stroke-width="0.1" stroke-linecap="butt" stroke-linejoin="miter" stroke="rgb(0%, 0%, 0%)" stroke-opacity="1" stroke-miterlimit="10" d="M 2.499992 4.899995 L 2.499992 4.499995 " transform="matrix(20, 0, 0, 20, 2.414214, -7.99989)"/>
<path fill="none" stroke-width="0.1" stroke-linecap="butt" stroke-linejoin="miter" stroke="rgb(0%, 0%, 0%)" stroke-opacity="1" stroke-miterlimit="10" d="M 2.499992 5.499995 L 2.499992 5.099995 " transform="matrix(20, 0, 0, 20, 2.414214, -7.99989)"/>
<path fill="none" stroke-width="0.1" stroke-linecap="butt" stroke-linejoin="miter" stroke="rgb(0%, 0%, 0%)" stroke-opacity="1" stroke-miterlimit="10" d="M 2.999992 4.499995 L 3.999992 4.499995 " transform="matrix(20, 0, 0, 20, 2.414214, -7.99989)"/>
<path fill="none" stroke-width="0.1" stroke-linecap="butt" stroke-linejoin="miter" stroke="rgb(0%, 0%, 0%)" stroke-opacity="1" stroke-miterlimit="10" d="M 2.999992 5.499995 L 3.999992 5.499995 " transform="matrix(20, 0, 0, 20, 2.414214, -7.99989)"/>
<path fill="none" stroke-width="0.1" stroke-linecap="butt" stroke-linejoin="miter" stroke="rgb(0%, 0%, 0%)" stroke-opacity="1" stroke-miterlimit="10" d="M 2.999992 4.999995 L 3.499992 4.999995 " transform="matrix(20, 0, 0, 20, 2.414214, -7.99989)"/>
<path fill="none" stroke-width="0.1" stroke-linecap="butt" stroke-linejoin="miter" stroke="rgb(0%, 0%, 0%)" stroke-opacity="1" stroke-miterlimit="10" d="M 0.999992 5.499995 L 0.999992 4.999995 " transform="matrix(20, 0, 0, 20, 2.414214, -7.99989)"/>
<path fill="none" stroke-width="0.1" stroke-linecap="butt" stroke-linejoin="miter" stroke="rgb(0%, 0%, 0%)" stroke-opacity="1" stroke-miterlimit="10" d="M 2.999992 4.999995 L 2.999992 4.499995 " transform="matrix(20, 0, 0, 20, 2.414214, -7.99989)"/>
<path fill="none" stroke-width="0.1" stroke-linecap="butt" stroke-linejoin="miter" stroke="rgb(0%, 0%, 0%)" stroke-opacity="1" stroke-miterlimit="10" d="M 2.999992 5.499995 L 2.999992 4.999995 " transform="matrix(20, 0, 0, 20, 2.414214, -7.99989)"/>
</svg>
